<svg width="512" height="512" viewBox="0 0 512 512" fill="none" xmlns="http://www.w3.org/2000/svg">
<rect width="512" height="512" rx="150" fill="#D3FF31"/>
<path d="M256.08 136.356V150.033C228.02 150.033 202.589 161.398 184.182 179.788C165.775 198.159 154.41 223.555 154.41 251.615C154.41 253.063 154.427 254.51 154.498 255.939H136.391C110.501 255.939 89.5 234.956 89.5 209.083V136.356C89.5 110.466 110.501 89.5 136.391 89.5H209.189C235.079 89.5 256.08 110.466 256.08 136.356ZM422.643 136.356V209.083C422.643 234.973 401.659 255.939 375.752 255.939H357.663C357.716 254.51 357.751 253.063 357.751 251.615C357.751 195.512 312.237 150.015 256.08 150.015V136.356C256.08 110.484 277.064 89.5 302.971 89.5H375.752C401.659 89.5 422.643 110.466 422.643 136.356ZM256.08 353.215V375.54C256.08 401.412 235.079 422.378 209.189 422.378H136.391C110.501 422.378 89.5 401.412 89.5 375.54V302.795C89.5 276.923 110.501 255.939 136.391 255.939H154.498C156.757 310.048 201.389 353.215 256.08 353.215ZM422.643 302.795V375.54C422.643 401.412 401.659 422.396 375.752 422.396H302.971C277.064 422.396 256.08 401.412 256.08 375.54V353.215C284.158 353.215 309.572 341.85 327.979 323.461C346.068 305.336 356.657 281.282 357.663 255.939H375.752C401.659 255.939 422.643 276.923 422.643 302.795Z" fill="#2E2E2E"/>
<path d="M256.08 136.356V150.033C228.02 150.033 202.589 161.398 184.182 179.788C165.775 198.159 154.41 223.555 154.41 251.615C154.41 253.063 154.427 254.51 154.498 255.939H136.391C110.501 255.939 89.5 234.956 89.5 209.083V136.356C89.5 110.466 110.501 89.5 136.391 89.5H209.189C235.079 89.5 256.08 110.466 256.08 136.356ZM422.643 136.356V209.083C422.643 234.973 401.659 255.939 375.752 255.939H357.663C357.716 254.51 357.751 253.063 357.751 251.615C357.751 195.512 312.237 150.015 256.08 150.015V136.356C256.08 110.484 277.064 89.5 302.971 89.5H375.752C401.659 89.5 422.643 110.466 422.643 136.356ZM256.08 353.215V375.54C256.08 401.412 235.079 422.378 209.189 422.378H136.391C110.501 422.378 89.5 401.412 89.5 375.54V302.795C89.5 276.923 110.501 255.939 136.391 255.939H154.498C156.757 310.048 201.389 353.215 256.08 353.215ZM422.643 302.795V375.54C422.643 401.412 401.659 422.396 375.752 422.396H302.971C277.064 422.396 256.08 401.412 256.08 375.54V353.215C284.158 353.215 309.572 341.85 327.979 323.461C346.068 305.336 356.657 281.282 357.663 255.939H375.752C401.659 255.939 422.643 276.923 422.643 302.795Z" fill="url(#paint0_radial_2026_7141)" fill-opacity="0.2"/>
<defs>
<radialGradient id="paint0_radial_2026_7141" cx="0" cy="0" r="1" gradientUnits="userSpaceOnUse" gradientTransform="translate(256.071 255.948) rotate(90) scale(166.448 166.571)">
<stop stop-color="#666666"/>
<stop offset="1"/>
</radialGradient>
</defs>
</svg>
